# xmcd
#
# Track frame offsets:
#	150
#	22276
#	36486
#	51147
#	57699
#	63740
#	97192
#	108787
#	111607
#	131289
#	163203
#	182249
#	184700
#	211688
#
# Disc length: 3090 seconds
#
# Revision: 0
# Processed by: cddbd v1.4PL0 Copyright (c) Steve Scherf et al.
# Submitted via: EasyCDDAExtractor 4.6.0.1
#
DISCID=da0c100e
DTITLE=Pink Floyd - Is There Anybody Out There? - The Wall Live Disc 2
DYEAR=2000
DGENRE=Progressive Rock
TTITLE0=Hey You
TTITLE1=Is There Anybody Out There?
TTITLE2=Nobody Home
TTITLE3=Vera
TTITLE4=Bring The Boys Back Home
TTITLE5=Comfortably Numb
TTITLE6=The Show Must Go On
TTITLE7=Master Of Ceremonies
TTITLE8=In The Flesh
TTITLE9=Run Like Hell
TTITLE10=Waiting For The Worms
TTITLE11=Stop
TTITLE12=The Trial
TTITLE13=Outside The Wall
EXTD=YEAR: 1981 ID3G:   0
EXTT0=
EXTT1=
EXTT2=
EXTT3=
EXTT4=
EXTT5=
EXTT6=
EXTT7=
EXTT8=
EXTT9=
EXTT10=
EXTT11=
EXTT12=
EXTT13=
PLAYORDER=
